<mxfile modified="2020-08-17T22:12:36.098Z" host="app.diagrams.net" agent="5.0 (Windows NT 10.0; Win64; x64) AppleWebKit/537.36 (KHTML, like Gecko) Chrome/84.0.4147.89 Safari/537.36" etag="8n6483jL_g5drQisu2pl" version="13.6.2" type="github">
  <diagram id="l8hXMBHkgcEJcSW0mbfh" name="Page-1">
    <mxGraphModel dx="2970" dy="1011" grid="1" gridSize="10" guides="1" tooltips="1" connect="1" arrows="0" fold="1" page="1" pageScale="1" pageWidth="1169" pageHeight="827" math="0" shadow="0">
      <root>
        <mxCell id="0" />
        <mxCell id="1" parent="0" />
        <mxCell id="an5O2O8GpZDD51hhjgrN-35" style="edgeStyle=none;orthogonalLoop=1;jettySize=auto;html=1;exitX=0.975;exitY=0.367;exitDx=0;exitDy=0;entryX=0;entryY=0.5;entryDx=0;entryDy=0;startArrow=none;startFill=0;strokeColor=#000000;fontSize=40;fontColor=#FFFFFF;exitPerimeter=0;" edge="1" parent="1" source="an5O2O8GpZDD51hhjgrN-5" target="an5O2O8GpZDD51hhjgrN-10">
          <mxGeometry relative="1" as="geometry" />
        </mxCell>
        <mxCell id="an5O2O8GpZDD51hhjgrN-36" style="edgeStyle=none;orthogonalLoop=1;jettySize=auto;html=1;exitX=0.983;exitY=0.642;exitDx=0;exitDy=0;entryX=0;entryY=0.5;entryDx=0;entryDy=0;startArrow=none;startFill=0;strokeColor=#000000;fontSize=40;fontColor=#FFFFFF;exitPerimeter=0;" edge="1" parent="1" source="an5O2O8GpZDD51hhjgrN-5" target="an5O2O8GpZDD51hhjgrN-30">
          <mxGeometry relative="1" as="geometry" />
        </mxCell>
        <mxCell id="an5O2O8GpZDD51hhjgrN-5" value="Event" style="ellipse;whiteSpace=wrap;html=1;aspect=fixed;fontSize=40;fontColor=#FFFFFF;fillColor=#DB9805;strokeColor=#DB9805;" vertex="1" parent="1">
          <mxGeometry x="540" y="340" width="120" height="120" as="geometry" />
        </mxCell>
        <mxCell id="an5O2O8GpZDD51hhjgrN-6" value="&lt;font color=&quot;#ffffff&quot;&gt;Source&lt;/font&gt;" style="rounded=0;whiteSpace=wrap;html=1;fontSize=40;fillColor=#A1CAD6;strokeColor=#A1CAD6;" vertex="1" parent="1">
          <mxGeometry x="-30" y="183" width="260" height="60" as="geometry" />
        </mxCell>
        <mxCell id="an5O2O8GpZDD51hhjgrN-17" style="orthogonalLoop=1;jettySize=auto;html=1;exitX=1;exitY=0.5;exitDx=0;exitDy=0;startArrow=none;startFill=0;strokeColor=#000000;fontSize=40;" edge="1" parent="1" target="an5O2O8GpZDD51hhjgrN-5">
          <mxGeometry relative="1" as="geometry">
            <mxPoint x="230" y="333" as="sourcePoint" />
            <mxPoint x="539" y="392" as="targetPoint" />
          </mxGeometry>
        </mxCell>
        <mxCell id="an5O2O8GpZDD51hhjgrN-13" style="rounded=0;orthogonalLoop=1;jettySize=auto;html=1;exitX=1;exitY=0.5;exitDx=0;exitDy=0;entryX=0.042;entryY=0.667;entryDx=0;entryDy=0;entryPerimeter=0;fontSize=40;" edge="1" parent="1" target="an5O2O8GpZDD51hhjgrN-5">
          <mxGeometry relative="1" as="geometry">
            <mxPoint x="230" y="467" as="sourcePoint" />
          </mxGeometry>
        </mxCell>
        <mxCell id="an5O2O8GpZDD51hhjgrN-10" value="&lt;font color=&quot;#ffffff&quot;&gt;Consequence&lt;/font&gt;" style="rounded=0;whiteSpace=wrap;html=1;fontSize=40;strokeColor=#EA6B66;fillColor=#D95252;" vertex="1" parent="1">
          <mxGeometry x="960" y="280" width="260" height="60" as="geometry" />
        </mxCell>
        <mxCell id="an5O2O8GpZDD51hhjgrN-24" value="" style="rounded=0;whiteSpace=wrap;html=1;fontSize=40;fillColor=#00566B;strokeColor=#00566B;" vertex="1" parent="1">
          <mxGeometry x="380" y="414" width="20" height="60" as="geometry" />
        </mxCell>
        <mxCell id="an5O2O8GpZDD51hhjgrN-25" style="orthogonalLoop=1;jettySize=auto;html=1;exitX=1;exitY=0.5;exitDx=0;exitDy=0;entryX=0.058;entryY=0.242;entryDx=0;entryDy=0;entryPerimeter=0;fontSize=40;startArrow=none;startFill=0;" edge="1" parent="1" source="an5O2O8GpZDD51hhjgrN-6" target="an5O2O8GpZDD51hhjgrN-5">
          <mxGeometry relative="1" as="geometry">
            <mxPoint x="230" y="200" as="sourcePoint" />
            <mxPoint x="556.04" y="340.03999999999996" as="targetPoint" />
          </mxGeometry>
        </mxCell>
        <mxCell id="an5O2O8GpZDD51hhjgrN-26" style="rounded=0;orthogonalLoop=1;jettySize=auto;html=1;exitX=1;exitY=0.5;exitDx=0;exitDy=0;entryX=0;entryY=1;entryDx=0;entryDy=0;fontSize=40;" edge="1" parent="1" target="an5O2O8GpZDD51hhjgrN-5">
          <mxGeometry relative="1" as="geometry">
            <mxPoint x="230" y="600" as="sourcePoint" />
            <mxPoint x="568.04" y="431.96000000000004" as="targetPoint" />
          </mxGeometry>
        </mxCell>
        <mxCell id="an5O2O8GpZDD51hhjgrN-23" value="" style="rounded=0;whiteSpace=wrap;html=1;fontSize=40;fillColor=#00566B;strokeColor=#00566B;" vertex="1" parent="1">
          <mxGeometry x="380" y="260" width="20" height="60" as="geometry" />
        </mxCell>
        <mxCell id="an5O2O8GpZDD51hhjgrN-18" value="" style="rounded=0;whiteSpace=wrap;html=1;fontSize=40;fillColor=#00566B;strokeColor=#00566B;" vertex="1" parent="1">
          <mxGeometry x="300" y="220" width="20" height="60" as="geometry" />
        </mxCell>
        <mxCell id="an5O2O8GpZDD51hhjgrN-22" value="" style="rounded=0;whiteSpace=wrap;html=1;fontSize=40;fillColor=#00566B;strokeColor=#00566B;" vertex="1" parent="1">
          <mxGeometry x="300" y="532" width="20" height="60" as="geometry" />
        </mxCell>
        <mxCell id="an5O2O8GpZDD51hhjgrN-27" value="&lt;font color=&quot;#ffffff&quot;&gt;Source&lt;/font&gt;" style="rounded=0;whiteSpace=wrap;html=1;fontSize=40;fillColor=#A1CAD6;strokeColor=#A1CAD6;" vertex="1" parent="1">
          <mxGeometry x="-30" y="303" width="260" height="60" as="geometry" />
        </mxCell>
        <mxCell id="an5O2O8GpZDD51hhjgrN-28" value="&lt;font color=&quot;#ffffff&quot;&gt;Source&lt;/font&gt;" style="rounded=0;whiteSpace=wrap;html=1;fontSize=40;fillColor=#A1CAD6;strokeColor=#A1CAD6;" vertex="1" parent="1">
          <mxGeometry x="-30" y="437" width="260" height="60" as="geometry" />
        </mxCell>
        <mxCell id="an5O2O8GpZDD51hhjgrN-29" value="&lt;font color=&quot;#ffffff&quot;&gt;Source&lt;/font&gt;" style="rounded=0;whiteSpace=wrap;html=1;fontSize=40;fillColor=#A1CAD6;strokeColor=#A1CAD6;" vertex="1" parent="1">
          <mxGeometry x="-30" y="570" width="260" height="60" as="geometry" />
        </mxCell>
        <mxCell id="an5O2O8GpZDD51hhjgrN-30" value="&lt;font color=&quot;#ffffff&quot;&gt;Consequence&lt;/font&gt;" style="rounded=0;whiteSpace=wrap;html=1;fontSize=40;strokeColor=#EA6B66;fillColor=#D95252;" vertex="1" parent="1">
          <mxGeometry x="960" y="437" width="260" height="60" as="geometry" />
        </mxCell>
        <mxCell id="an5O2O8GpZDD51hhjgrN-31" style="edgeStyle=none;orthogonalLoop=1;jettySize=auto;html=1;exitX=1;exitY=0.5;exitDx=0;exitDy=0;startArrow=none;startFill=0;strokeColor=#000000;fontSize=40;fontColor=#FFFFFF;" edge="1" parent="1" source="an5O2O8GpZDD51hhjgrN-22" target="an5O2O8GpZDD51hhjgrN-22">
          <mxGeometry relative="1" as="geometry" />
        </mxCell>
        <mxCell id="an5O2O8GpZDD51hhjgrN-32" value="" style="rounded=0;whiteSpace=wrap;html=1;fontSize=40;fillColor=#702A2A;strokeColor=#702A2A;" vertex="1" parent="1">
          <mxGeometry x="810" y="314" width="20" height="60" as="geometry" />
        </mxCell>
        <mxCell id="an5O2O8GpZDD51hhjgrN-37" value="" style="rounded=0;whiteSpace=wrap;html=1;fontSize=40;fillColor=#702A2A;strokeColor=#702A2A;" vertex="1" parent="1">
          <mxGeometry x="810" y="414" width="20" height="60" as="geometry" />
        </mxCell>
        <mxCell id="an5O2O8GpZDD51hhjgrN-38" value="Preventive&lt;br&gt;Controls" style="text;html=1;resizable=0;autosize=1;align=center;verticalAlign=middle;points=[];fillColor=none;strokeColor=none;rounded=0;fontSize=40;fontColor=#00566B;" vertex="1" parent="1">
          <mxGeometry x="270" y="620" width="200" height="100" as="geometry" />
        </mxCell>
        <mxCell id="an5O2O8GpZDD51hhjgrN-39" value="Detective&lt;br&gt;Controls" style="text;html=1;resizable=0;autosize=1;align=center;verticalAlign=middle;points=[];fillColor=none;strokeColor=none;rounded=0;fontSize=40;fontColor=#702A2A;" vertex="1" parent="1">
          <mxGeometry x="730" y="620" width="180" height="100" as="geometry" />
        </mxCell>
      </root>
    </mxGraphModel>
  </diagram>
</mxfile>
